{"accessors" : [{"bufferView" : 0, "byteOffset" : 0, "componentType" : 5123, "count" : 22272, "type" : "SCALAR", "max" : [22271], "min" : [0]}, {"bufferView" : 1, "byteOffset" : 0, "componentType" : 5126, "count" : 22272, "type" : "VEC3", "max" : [0.2251407504081726, 0.6602593064308167, 1.0536383390426636], "min" : [-0.22514072060585022, -0.2584114968776703, -1.5698028802871704], "name" : "POSITION"}, {"bufferView" : 1, "byteOffset" : 12, "componentType" : 5126, "count" : 22272, "type" : "VEC3", "max" : [0.9999934434890747, 0.999944269657135, 0.9999790787696838], "min" : [-0.9999934434890747, -0.9999856948852539, -0.9963312745094299], "name" : "NORMAL"}, {"bufferView" : 1, "byteOffset" : 24, "componentType" : 5126, "count" : 22272, "type" : "VEC2", "max" : [0.6410481929779053, -0.00361177371814847], "min" : [0.003966256510466337, -0.999275803565979], "name" : "TEXCOORD_0"}], "asset" : {"generator" : "Aspose.3D 22.7", "version" : "2.0"}, "buffers" : [{"uri" : "data:application/octet-stream;base64,", "byteLength" : 757256}], "bufferViews" : [{"buffer" : 0, "byteOffset" : 0, "byteLength" : 44544, "target" : 34963}, {"buffer" : 0, "byteOffset" : 44548, "byteLength" : 712704, "byteStride" : 32, "target" : 34962}], "images" : [{"uri" : "C:\\Users\\NCpc\\Documents\\Allegorithmic\\Substance Painter\\export\\Banana_normal.png"}, {"uri" : "C:\\Users\\NCpc\\Documents\\Allegorithmic\\Substance Painter\\export\\Banana_basecolor.png"}], "materials" : [{"name" : "Banana", "pbrMetallicRoughness" : {"baseColorFactor" : [0.800000011920929, 0.800000011920929, 0.800000011920929, 1], "baseColorTexture" : {"index" : 1, "texCoord" : 0}, "metallicFactor" : 0, "roughnessFactor" : 0}, "normalTexture" : {"index" : 0, "texCoord" : 0, "scale" : 1}, "emissiveFactor" : [0, 0, 0], "alphaMode" : "OPAQUE", "doubleSided" : false}], "meshes" : [{"primitives" : [{"attributes" : {"POSITION" : 1, "NORMAL" : 2, "TEXCOORD_0" : 3}, "indices" : 0, "material" : 0, "mode" : 4}], "name" : "Mesh.001"}], "nodes" : [{"matrix" : [100, 0, 0, 0, 0, 99.99999999999866, 1.629206707320911E-05, 0, 0, -1.629206707320911E-05, 99.99999999999866, 0, 1.6188012687648647E-22, 28.47113037109375, 0, 1], "mesh" : 0, "name" : "Banana_low"}], "samplers" : [{"magFilter" : 9729, "minFilter" : 9729, "wrapS" : 10497, "wrapT" : 10497}, {"magFilter" : 9729, "minFilter" : 9729, "wrapS" : 10497, "wrapT" : 10497}], "scene" : 0, "scenes" : [{"nodes" : [0]}], "textures" : [{"sampler" : 0, "source" : 0, "name" : "normalmap_texture"}, {"sampler" : 1, "source" : 1, "name" : "base_color_texture"}]}